HIERARCHY
ROOT Hips
{
	OFFSET 0.00000 0.00000 0.00000
	CHANNELS 6 Xposition Yposition Zposition Zrotation Yrotation Xrotation 
	JOINT LHipJoint
	{
		OFFSET 0 0 0
		CHANNELS 3 Zrotation Yrotation Xrotation
		JOINT LeftHip
		{
			OFFSET 1.57358 -1.76629 0.73362
			CHANNELS 3 Zrotation Yrotation Xrotation
			JOINT LeftKnee
			{
				OFFSET 2.40600 -6.61045 0.00000
				CHANNELS 3 Zrotation Yrotation Xrotation
				JOINT LeftAnkle
				{
					OFFSET 2.66168 -7.31291 0.00000
					CHANNELS 3 Zrotation Yrotation Xrotation
					JOINT LeftToe
					{
						OFFSET 0.20870 -0.57341 2.12506
						CHANNELS 3 Zrotation Yrotation Xrotation
						End Site
						{
							OFFSET 0.00000 -0.00000 1.10557
						}
					}
				}
			}
		}
	}
	JOINT RHipJoint
	{
		OFFSET 0 0 0
		CHANNELS 3 Zrotation Yrotation Xrotation
		JOINT RightHip
		{
			OFFSET -1.49299 -1.76629 0.73362
			CHANNELS 3 Zrotation Yrotation Xrotation
			JOINT RightKnee
			{
				OFFSET -2.43663 -6.69460 0.00000
				CHANNELS 3 Zrotation Yrotation Xrotation
				JOINT RightAnkle
				{
					OFFSET -2.62959 -7.22474 0.00000
					CHANNELS 3 Zrotation Yrotation Xrotation
					JOINT RightToe
					{
						OFFSET -0.25784 -0.70841 2.21862
						CHANNELS 3 Zrotation Yrotation Xrotation
						End Site
						{
							OFFSET -0.00000 -0.00000 1.16452
						}
					}
				}
			}
		}
	}
	JOINT lowerback
	{
		OFFSET 0 0 0
		CHANNELS 3 Zrotation Yrotation Xrotation
		JOINT Chest
		{
			OFFSET -0.00034 2.12399 -0.25450
			CHANNELS 3 Zrotation Yrotation Xrotation
			JOINT Chest2
			{
				OFFSET 0.05594 2.14379 -0.03318
				CHANNELS 3 Zrotation Yrotation Xrotation
				JOINT lowerneck
				{
					OFFSET 0 0 0
					CHANNELS 3 Zrotation Yrotation Xrotation
					JOINT Neck
					{
						OFFSET -0.09835 1.62725 0.24211
						CHANNELS 3 Zrotation Yrotation Xrotation
						JOINT Head
						{
							OFFSET 0.10849 1.66041 -0.22648
							CHANNELS 3 Zrotation Yrotation Xrotation
							End Site
							{
								OFFSET 0.04385 1.68267 -0.10541
							}
						}
					}
				}
				JOINT LeftCollar
				{
					OFFSET 0 0 0
					CHANNELS 3 Zrotation Yrotation Xrotation
					JOINT LeftShoulder
					{
						OFFSET 3.29108 0.79398 -0.68179
CHANNELS 3 Zrotation Xrotation Yrotation
						JOINT LeftElbow
						{
OFFSET 0 -5.153100 -0.000000
CHANNELS 3 Zrotation Xrotation Yrotation
							JOINT LeftWrist
							{
OFFSET 0 -3.751380 -0.000000
CHANNELS 3 Zrotation Xrotation Yrotation
								JOINT lhand
								{
									OFFSET 0 0 0
CHANNELS 3 Zrotation Xrotation Yrotation
									JOINT LFingers
									{
OFFSET 0 -0.529170 0.000000
CHANNELS 3 Zrotation Xrotation Yrotation
										End Site
										{
OFFSET 0 -0.426630 0.000000
										}
									}
								}
								JOINT LThumb
								{
OFFSET 0 0.000000 0.000000
CHANNELS 3 Zrotation Xrotation Yrotation
									End Site
									{
OFFSET 0 -0.433150 0.433150
									}
								}
							}
						}
					}
				}
				JOINT RightCollar
				{
					OFFSET 0 0 0
					CHANNELS 3 Zrotation Yrotation Xrotation
					JOINT RightShoulder
					{
						OFFSET -3.07414 1.06285 -0.44338
CHANNELS 3 Zrotation Xrotation Yrotation
						JOINT RightElbow
						{
OFFSET 0 -5.296130 0.000000
CHANNELS 3 Zrotation Xrotation Yrotation
							JOINT RightWrist
							{
OFFSET 0 -3.761440 -0.000000
CHANNELS 3 Zrotation Xrotation Yrotation
								JOINT rhand
								{
									OFFSET 0 0 0
CHANNELS 3 Zrotation Xrotation Yrotation
									JOINT RFingers
									{
OFFSET 0 -0.747320 0.000000
CHANNELS 3 Zrotation Xrotation Yrotation
										End Site
										{
OFFSET 0 -0.602510 0.000000
										}
									}
								}
								JOINT RThumb
								{
OFFSET 0 0.000000 0.000000
CHANNELS 3 Zrotation Xrotation Yrotation
									End Site
									{
OFFSET 0 -0.611710 0.611710
									}
								}
							}
						}
					}
				}
			}
		}
	}
}
MOTION
Frames: 12
Frame Time: 0.008333333333333333
13.209555 17.569727 0.043691 4.665715 -9.502652 2.597221 0.000000 0.000000 0.000000 -24.137555 -3.434496 -10.271613 1.785328 8.403781 23.947436 0.601183 2.234402 -15.626401 0.003941 -0.360036 -0.989383 0.000000 0.000000 0.000000 17.397009 2.023373 -33.627374 -2.925735 -10.569948 30.846771 0.101439 -9.914872 -12.296416 -0.108306 2.120521 -5.838915 -5.341665 -0.997967 8.081757 1.170790 -1.772794 0.245051 4.429934 -0.766452 -4.082944 -9.085965 -4.560960 -17.559923 6.335276 -5.486127 23.314457 3.005695 -2.569513 10.859067 0.000000 0.000000 0.000000 5.410059 -9.421690 -20.100631 14.406185 -23.312439 2.986958 16.823218 15.641856 -25.839067 0.000000 0.000000 0.000000 -7.125000 0.000000 0.000000 -14.146365 56.251223 3.960391 0.000000 0.000000 0.000000 -0.969524 1.732433 9.999820 -16.102115 -25.658880 -3.690120 -14.417830 5.100171 -12.100179 0.000000 0.000000 0.000000 7.125000 0.000000 0.000000 8.902451 17.588294 5.867548
13.187839 17.566514 0.113055 4.808106 -9.751624 2.643062 0.000000 0.000000 0.000000 -24.316059 -3.090066 -10.007970 1.762320 8.352236 23.789230 0.641805 2.251731 -16.108862 0.029531 -0.922971 -2.538290 0.000000 0.000000 0.000000 17.450251 1.951102 -33.607824 -2.660967 -10.117383 29.364486 0.160218 -10.536051 -12.171672 -0.098647 2.021484 -5.565158 -5.366456 -0.997218 7.796510 1.093420 -1.759330 0.348233 4.350280 -0.770869 -3.818210 -9.136312 -4.489819 -17.486141 6.479351 -5.408993 23.179327 3.077497 -2.522375 10.793502 0.000000 0.000000 0.000000 5.599819 -9.780854 -20.107859 14.384536 -23.281788 2.978419 16.648372 15.597032 -25.662565 0.000000 0.000000 0.000000 -7.125000 0.000000 0.000000 -14.232229 56.042505 3.911461 0.000000 0.000000 0.000000 -0.889955 1.593773 9.793102 -16.037322 -25.571167 -3.662080 -14.980792 4.908530 -12.407270 0.000000 0.000000 0.000000 7.125000 0.000000 0.000000 8.509772 17.235790 5.667439
13.165193 17.565096 0.180987 4.932527 -10.023516 2.669150 0.000000 0.000000 0.000000 -24.484802 -2.588757 -9.706396 1.735360 8.291400 23.602793 0.680399 2.254021 -16.557540 0.058447 -1.557106 -4.283184 0.000000 0.000000 0.000000 17.508467 1.937207 -33.540571 -2.412470 -9.672791 27.926874 0.219725 -11.147130 -12.046627 -0.084295 1.871794 -5.151515 -5.387061 -0.988437 7.594488 1.027940 -1.739708 0.399305 4.283806 -0.767762 -3.655169 -9.267473 -4.415577 -17.277078 6.665547 -5.330435 23.077273 3.180453 -2.479814 10.717722 0.000000 0.000000 0.000000 5.786007 -10.009140 -20.153301 14.380954 -23.276701 2.977020 16.472676 15.487521 -25.499598 0.000000 0.000000 0.000000 -7.125000 0.000000 0.000000 -14.326576 55.846595 3.870370 0.000000 0.000000 0.000000 -0.822316 1.551874 9.637307 -16.007238 -25.530419 -3.649072 -15.364945 4.814089 -12.653836 0.000000 0.000000 0.000000 7.125000 0.000000 0.000000 8.241725 16.957405 5.537712
13.143070 17.562775 0.245922 5.073458 -10.299642 2.660410 0.000000 0.000000 0.000000 -24.658302 -2.253500 -9.335975 1.700263 8.211580 23.358691 0.693918 2.421650 -16.795156 0.070806 -1.715448 -4.719838 0.000000 0.000000 0.000000 17.499454 1.998250 -33.430640 -2.191377 -9.251227 26.586324 0.288416 -11.794702 -11.836937 -0.076033 1.777772 -4.891981 -5.461145 -0.984272 7.605003 0.979256 -1.744351 0.345227 4.276568 -0.765986 -3.716417 -9.391402 -4.360748 -17.045129 6.757725 -5.269528 23.160302 3.247914 -2.457759 10.704271 0.000000 0.000000 0.000000 5.948309 -10.042256 -20.221582 14.415436 -23.325522 2.990607 16.287226 15.244169 -25.797438 0.000000 0.000000 0.000000 -7.125000 0.000000 0.000000 -14.674806 56.101213 4.058277 0.000000 0.000000 0.000000 -0.796643 1.707144 9.700330 -16.045953 -25.582927 -3.665801 -15.122003 4.853965 -12.665171 0.000000 0.000000 0.000000 7.125000 0.000000 0.000000 8.409695 16.963686 5.651877
13.122837 17.558277 0.313891 5.295300 -10.515471 2.632545 0.000000 0.000000 0.000000 -24.919987 -2.140306 -8.935032 1.661503 8.121969 23.085442 0.681155 2.677519 -16.787461 0.050983 -1.432185 -3.939156 0.000000 0.000000 0.000000 17.394527 1.923409 -33.333821 -1.991301 -8.841746 25.305727 0.348001 -12.466381 -11.965266 -0.049906 1.408033 -3.872808 -5.666646 -1.027348 7.729184 0.988579 -1.830363 0.203022 4.418269 -0.794732 -3.918414 -9.464081 -4.278834 -16.912645 6.680408 -5.135212 23.331858 3.256051 -2.416522 10.729299 0.000000 0.000000 0.000000 5.975989 -9.998870 -20.158846 14.417392 -23.328246 2.991368 16.100688 15.031052 -26.491417 0.000000 0.000000 0.000000 -7.125000 0.000000 0.000000 -15.256323 56.739429 4.467217 0.000000 0.000000 0.000000 -0.927810 2.019885 9.864879 -16.067718 -25.612358 -3.675200 -14.680362 4.974752 -12.457306 0.000000 0.000000 0.000000 7.125000 0.000000 0.000000 8.717098 17.206518 5.815459
13.103120 17.552748 0.383850 5.566300 -10.726288 2.627513 0.000000 0.000000 0.000000 -25.225382 -2.155842 -8.569596 1.617618 8.019158 22.772613 0.656871 3.034582 -16.710699 0.028851 -1.074268 -2.953354 0.000000 0.000000 0.000000 17.241490 1.828348 -33.273293 -1.808371 -8.451116 24.095235 0.376767 -12.992534 -12.472963 -0.030072 0.584299 -1.606427 -5.893117 -1.078416 7.792810 0.978539 -1.926618 0.051497 4.550800 -0.828686 -4.094827 -9.515737 -4.203125 -16.798661 6.584014 -5.008098 23.487882 3.252059 -2.378541 10.751720 0.000000 0.000000 0.000000 5.989641 -9.955629 -20.060301 14.407778 -23.314617 2.987567 15.977031 14.819436 -26.987344 0.000000 0.000000 0.000000 -7.125000 0.000000 0.000000 -15.663547 57.197079 4.759149 0.000000 0.000000 0.000000 -1.059221 2.359503 10.012284 -16.091995 -25.645165 -3.685692 -14.479948 4.998032 -12.427491 0.000000 0.000000 0.000000 7.125000 0.000000 0.000000 8.856058 17.251114 5.902063
13.083660 17.546193 0.456159 5.893500 -10.948131 2.666842 0.000000 0.000000 0.000000 -25.575525 -2.315277 -8.273396 1.566339 7.897414 22.402942 0.621775 3.532551 -16.597354 0.013215 -0.733617 -2.016273 0.000000 0.000000 0.000000 17.038833 1.743203 -33.269264 -1.647365 -8.088137 22.982741 0.356897 -13.267432 -13.506593 -0.026521 -0.910292 2.502214 -6.112366 -1.127646 7.718521 0.917428 -2.013812 -0.087248 4.620037 -0.861529 -4.183113 -9.548717 -4.146521 -16.683608 6.510271 -4.916671 23.589415 3.246869 -2.352184 10.757387 0.000000 0.000000 0.000000 6.023167 -9.937262 -19.944019 14.389274 -23.288466 2.980261 15.958937 14.600597 -27.024352 0.000000 0.000000 0.000000 -7.125000 0.000000 0.000000 -15.704037 57.229103 4.784139 0.000000 0.000000 0.000000 -1.140543 2.693395 10.098317 -16.125930 -25.691049 -3.700372 -14.747130 4.832110 -12.766162 0.000000 0.000000 0.000000 7.125000 0.000000 0.000000 8.668287 16.887861 5.843957
13.060226 17.546407 0.524928 6.115000 -11.203386 2.672760 0.000000 0.000000 0.000000 -25.840647 -1.945590 -7.874352 1.517420 7.778278 22.042898 0.615805 3.839366 -16.717331 0.022233 -0.943886 -2.594517 0.000000 0.000000 0.000000 16.970879 1.784748 -33.170528 -1.506606 -7.747888 21.953218 0.417514 -14.388675 -14.759759 -0.030485 -1.125117 3.093125 -6.243365 -1.143217 7.636344 0.865757 -2.043623 -0.107687 4.640335 -0.874747 -4.152223 -9.518040 -4.161770 -16.855846 6.419574 -4.915666 23.778017 3.210194 -2.358494 10.857390 0.000000 0.000000 0.000000 6.114139 -10.026520 -19.838792 14.461627 -23.390682 3.008975 15.932334 14.560306 -27.063658 0.000000 0.000000 0.000000 -7.125000 0.000000 0.000000 -15.754961 57.261685 4.812670 0.000000 0.000000 0.000000 -1.166655 2.723848 10.075980 -16.119747 -25.682655 -3.697663 -14.823777 4.833930 -13.086264 0.000000 0.000000 0.000000 7.125000 0.000000 0.000000 8.613976 16.556468 5.869317
13.036031 17.544560 0.592828 6.310005 -11.469165 2.665024 0.000000 0.000000 0.000000 -26.062888 -1.688534 -7.456966 1.471592 7.665266 21.702132 0.612672 4.111065 -16.853253 0.023890 -0.984291 -2.705591 0.000000 0.000000 0.000000 16.939415 1.848192 -33.071487 -1.377096 -7.422569 20.975092 0.515061 -15.505651 -15.432367 -0.068953 -1.578263 4.344149 -6.360513 -1.156046 7.562377 0.822013 -2.067969 -0.106302 4.660355 -0.886682 -4.103859 -9.498898 -4.194952 -16.966176 6.348672 -4.943556 23.871822 3.177253 -2.376926 10.913846 0.000000 0.000000 0.000000 6.187823 -10.078901 -19.726035 14.583671 -23.562667 3.057709 15.926306 14.537287 -27.072079 0.000000 0.000000 0.000000 -7.125000 0.000000 0.000000 -15.766177 57.268558 4.818825 0.000000 0.000000 0.000000 -1.181108 2.692218 10.025211 -16.087544 -25.639117 -3.683745 -14.772244 4.975216 -13.191498 0.000000 0.000000 0.000000 7.125000 0.000000 0.000000 8.648960 16.453146 5.913340
13.011382 17.539303 0.660084 6.485076 -11.743926 2.644403 0.000000 0.000000 0.000000 -26.242193 -1.637596 -7.029462 1.429327 7.559567 21.384218 0.609463 4.362678 -16.980119 0.013307 -0.744490 -2.046002 0.000000 0.000000 0.000000 16.936752 1.923232 -32.983815 -1.259108 -7.113054 20.050779 0.648686 -16.512310 -15.353640 -0.149524 -2.487417 6.854890 -6.471332 -1.169634 7.499627 0.786985 -2.092618 -0.092372 4.686096 -0.899450 -4.048483 -9.502039 -4.241588 -16.963649 6.304563 -4.996269 23.836589 3.152877 -2.406423 10.904287 0.000000 0.000000 0.000000 6.232820 -10.071936 -19.602516 14.756421 -23.805745 3.126946 15.946995 14.513662 -27.041694 0.000000 0.000000 0.000000 -7.125000 0.000000 0.000000 -15.726575 57.243294 4.796634 0.000000 0.000000 0.000000 -1.187868 2.620797 9.952424 -16.027867 -25.558477 -3.658004 -14.584473 5.269641 -13.031039 0.000000 0.000000 0.000000 7.125000 0.000000 0.000000 8.778761 16.630334 5.970286
12.985796 17.530229 0.726002 6.622725 -12.109263 2.609456 0.000000 0.000000 0.000000 -26.392711 -1.623278 -6.612602 1.398576 7.481116 21.148915 0.615894 4.610945 -17.219384 0.011493 -0.691667 -1.900683 0.000000 0.000000 0.000000 16.969436 2.115627 -32.781399 -1.150157 -6.805882 19.142935 0.884804 -18.755307 -16.991246 -0.050817 -0.672985 1.855885 -6.536361 -1.155641 7.503287 0.767823 -2.083460 -0.172434 4.703738 -0.888386 -4.134361 -9.674282 -4.261579 -16.489429 6.362076 -5.029166 23.602865 3.198659 -2.437326 10.736202 0.000000 0.000000 0.000000 6.268779 -9.969307 -19.592870 14.765289 -23.818199 3.130509 16.167448 14.482405 -26.882708 0.000000 0.000000 0.000000 -7.125000 0.000000 0.000000 -15.405000 57.135420 4.655415 0.000000 0.000000 0.000000 -1.270275 2.912083 10.347180 -16.102749 -25.659794 -3.690370 -14.693736 4.836911 -13.086343 0.000000 0.000000 0.000000 7.125000 0.000000 0.000000 8.703242 16.565985 5.929961
12.961177 17.519600 0.792879 6.820849 -12.489264 2.569680 0.000000 0.000000 0.000000 -26.626984 -1.581651 -6.208143 1.368089 7.402503 20.913568 0.610716 5.013396 -17.442223 0.039056 -1.118785 -3.077488 0.000000 0.000000 0.000000 16.956962 2.275032 -32.626256 -1.054208 -6.525985 18.319362 1.118035 -20.492053 -17.667131 -0.000877 0.172416 -0.473783 -6.622563 -1.127253 7.491258 0.713224 -2.057741 -0.257576 4.693918 -0.868886 -4.219500 -9.748944 -4.275615 -16.130884 6.343275 -5.054376 23.470046 3.201950 -2.463607 10.622161 0.000000 0.000000 0.000000 6.340171 -9.920356 -19.622130 14.732880 -23.772684 3.117475 16.401291 14.501650 -26.811933 0.000000 0.000000 0.000000 -7.125000 0.000000 0.000000 -15.120705 57.116146 4.559058 0.000000 0.000000 0.000000 -1.306743 3.204511 10.629384 -16.183310 -25.768581 -3.725305 -14.827876 4.426449 -13.254833 0.000000 0.000000 0.000000 7.125000 0.000000 0.000000 8.610594 16.384377 5.899390
